<?xml version="1.0" encoding="utf-8"?>
<!-- Generator: Adobe Illustrator 22.0.0, SVG Export Plug-In . SVG Version: 6.00 Build 0)  -->
<svg version="1.1" id="Layer_1" xmlns="http://www.w3.org/2000/svg" xmlns:xlink="http://www.w3.org/1999/xlink" x="0px" y="0px"
	 viewBox="0 0 48 48" style="enable-background:new 0 0 48 48;" xml:space="preserve">
<style type="text/css">
	.st0{fill:#AAB7C9;}
	.st1{fill:#C9985F;}
	.st2{fill:#5A483C;}
</style>
<g>
	<path class="st0" d="M47.1,19v9.3c0,10.2-8.3,18.5-18.5,18.5c-5.3,0-10.1-2.2-13.4-5.8h-5.1c-2.5,0-4.8-1-6.5-2.7
		c-1.7-1.7-2.7-4.1-2.7-6.5c0-2.5,1-4.8,2.7-6.5c1.7-1.7,4.1-2.7,6.5-2.7V19H47.1z M43.7,28.3v-5.8c-3.8,0-3.8,1.6-7.5,1.6
		c-3.8,0-3.8-1.6-7.5-1.6c-3.8,0-3.8,1.6-7.5,1.6c-3.8,0-3.8-1.6-7.5-1.6v5.8c0,8.3,6.7,15,15,15C36.9,43.3,43.7,36.5,43.7,28.3
		L43.7,28.3z M10.1,37.5h2.5c-1.6-2.7-2.5-5.9-2.5-9.3v-2.3c-1.5,0-3,0.6-4.1,1.7c-1.1,1.1-1.7,2.5-1.7,4.1c0,1.5,0.6,3,1.7,4.1
		C7.1,36.9,8.6,37.5,10.1,37.5L10.1,37.5z M10.1,37.5"/>
	<path class="st1" d="M43.7,22.5v5.8c0,8.3-6.7,15-15,15c-8.3,0-15-6.7-15-15v-5.8c3.8,0,3.8,1.6,7.5,1.6c3.8,0,3.8-1.6,7.5-1.6
		c3.8,0,3.8,1.6,7.5,1.6C39.9,24.1,39.9,22.5,43.7,22.5L43.7,22.5z M43.7,22.5"/>
	<path class="st2" d="M10.1,41.8h4.7c3.7,3.7,8.6,5.8,13.8,5.8c10.7,0,19.4-8.7,19.4-19.4V19c0-0.5-0.4-0.9-0.9-0.9h-37
		c-0.5,0-0.9,0.4-0.9,0.9v2.6c-2.4,0.2-4.6,1.2-6.3,2.9c-1.9,1.9-3,4.5-3,7.2c0,2.7,1.1,5.2,3,7.2C4.9,40.8,7.4,41.8,10.1,41.8
		L10.1,41.8z M4.2,25.8c1.6-1.6,3.7-2.5,5.9-2.5c0.5,0,0.9-0.4,0.9-0.9v-2.6h35.3v8.4c0,9.7-7.9,17.6-17.6,17.6
		c-4.9,0-9.4-2-12.8-5.5c-0.2-0.2-0.4-0.3-0.6-0.3h-5.1c-2.2,0-4.3-0.9-5.9-2.5c-1.6-1.6-2.5-3.7-2.5-5.9
		C1.7,29.5,2.6,27.4,4.2,25.8L4.2,25.8z M4.2,25.8"/>
	<path class="st2" d="M10.1,38.4h2.5c0.3,0,0.6-0.2,0.8-0.4c0.2-0.3,0.2-0.6,0-0.9c-1.5-2.7-2.4-5.7-2.4-8.8v-2.3
		c0-0.5-0.4-0.9-0.9-0.9c-1.8,0-3.4,0.7-4.7,1.9c-1.3,1.3-1.9,2.9-1.9,4.7c0,1.8,0.7,3.4,1.9,4.7C6.7,37.7,8.3,38.4,10.1,38.4
		L10.1,38.4z M6.6,28.2c0.7-0.7,1.6-1.2,2.6-1.4v1.4c0,2.9,0.7,5.8,1.9,8.4h-1c-1.3,0-2.5-0.5-3.5-1.4c-0.9-0.9-1.4-2.2-1.4-3.5
		C5.2,30.4,5.7,29.2,6.6,28.2L6.6,28.2z M6.6,28.2"/>
	<path class="st2" d="M28.6,44.2c3.6,0,7-1.2,9.9-3.4c0.4-0.3,0.4-0.8,0.1-1.2c-0.3-0.4-0.8-0.4-1.2-0.1c-2.5,2-5.6,3.1-8.8,3.1
		c-7.8,0-14.2-6.4-14.2-14.2v-4.9c1.1,0.1,1.8,0.4,2.5,0.7c1,0.4,2,0.9,4.1,0.9c2.1,0,3.1-0.5,4.1-0.9c0.9-0.4,1.7-0.7,3.4-0.7
		c1.7,0,2.5,0.3,3.4,0.7c1,0.4,2,0.9,4.1,0.9c2.1,0,3.1-0.5,4.1-0.9c0.7-0.3,1.4-0.6,2.5-0.7l0,4.9c0,3.2-1.1,6.3-3.1,8.8
		c-0.3,0.4-0.2,0.9,0.1,1.2c0.4,0.3,0.9,0.2,1.2-0.1c2.3-2.8,3.4-6.2,3.4-9.9v-5.8c0-0.2-0.1-0.5-0.3-0.6c-0.2-0.2-0.4-0.3-0.6-0.3
		c-2.1,0-3.1,0.5-4.1,0.9c-0.9,0.4-1.7,0.7-3.4,0.7c-1.7,0-2.5-0.3-3.4-0.7c-1-0.4-2-0.9-4.1-0.9c-2.1,0-3.1,0.5-4.1,0.9
		c-0.9,0.4-1.7,0.7-3.4,0.7c-1.7,0-2.5-0.3-3.4-0.7c-1-0.4-2-0.9-4.1-0.9c-0.5,0-0.9,0.4-0.9,0.9v5.8C12.7,37,19.9,44.2,28.6,44.2
		L28.6,44.2z M28.6,44.2"/>
	<path class="st2" d="M24,13.1c2.1,2.1,4.8,3.3,7.2,3.3c1.6,0,3-0.5,3.9-1.5c1.3-1.3,1.8-3.2,1.4-5.4c-0.4-2-1.5-4.1-3.2-5.8
		c-2.1-2.1-4.8-3.3-7.2-3.3c-1.6,0-3,0.5-3.9,1.5c-1.3,1.3-1.8,3.2-1.4,5.4C21.1,9.3,22.3,11.4,24,13.1L24,13.1z M32.1,4.9
		c1.4,1.4,2.4,3.2,2.7,4.9c0.2,1.2,0.1,2.3-0.4,3.1l-5.6-5.6c-0.3-0.3-0.9-0.3-1.2,0c-0.3,0.3-0.3,0.9,0,1.2l5.6,5.6
		c-0.6,0.3-1.2,0.5-2,0.5c-2,0-4.2-1.1-6-2.8c-1.4-1.4-2.4-3.2-2.7-4.9c-0.2-1.2-0.1-2.3,0.4-3.1l2.3,2.3c0.2,0.2,0.4,0.3,0.6,0.3
		c0.2,0,0.4-0.1,0.6-0.3c0.3-0.3,0.3-0.9,0-1.2l-2.3-2.3c0.6-0.3,1.3-0.5,2-0.5C28.1,2.1,30.3,3.2,32.1,4.9L32.1,4.9z M32.1,4.9"/>
	<path class="st1" d="M32.1,4.9c1.4,1.4,2.4,3.2,2.7,4.9c0.2,1.2,0.1,2.3-0.4,3.1l-5.6-5.6c-0.3-0.3-0.9-0.3-1.2,0
		c-0.3,0.3-0.3,0.9,0,1.2l5.6,5.6c-0.6,0.3-1.2,0.5-2,0.5c-2,0-4.2-1.1-6-2.8c-1.4-1.4-2.4-3.2-2.7-4.9c-0.2-1.2-0.1-2.3,0.4-3.1
		l2.3,2.3c0.2,0.2,0.4,0.3,0.6,0.3c0.2,0,0.4-0.1,0.6-0.3c0.3-0.3,0.3-0.9,0-1.2l-2.3-2.3c0.6-0.3,1.3-0.5,2-0.5
		C28.1,2.1,30.3,3.2,32.1,4.9L32.1,4.9z"/>
</g>
</svg>
